<?xml version="1.0" encoding="utf-8"?>
<!-- Generator: Adobe Illustrator 21.0.0, SVG Export Plug-In . SVG Version: 6.00 Build 0)  -->
<svg version="1.1" id="Capa_1" xmlns="http://www.w3.org/2000/svg" xmlns:xlink="http://www.w3.org/1999/xlink" x="0px" y="0px"
	 viewBox="0 0 562.7 500.1" style="enable-background:new 0 0 562.7 500.1;" xml:space="preserve">
<style type="text/css">
	.st0{fill:#F17B01;}
	.st1{fill:#00C4D8;}
	.st2{fill:#78B800;}
	.st3{fill:#255836;}
	.st4{fill:#FFFFFF;}
</style>
<g>
	<path class="st0" d="M7.6,321.5c0,0,47.8,20.2,110.9,46.1c-19-47.2-37.2-92.5-52-131.5C32.2,284.6,7.6,321.5,7.6,321.5z"/>
	<path class="st1" d="M265.4,9.2c-16.3-2.8-55.3,38.4-98.2,91.8c57.8-3.5,125.4-6.9,184.9-9.8C303.6,45,265.4,9.2,265.4,9.2z"/>
	<path class="st2" d="M468.9,204.1c-13.1,48.6-27.1,107.6-37.1,168.4c68.2-37,122.8-70.1,122.8-76.2
		C554.6,290.5,517,251.6,468.9,204.1z"/>
	<path class="st2" d="M166.3,485.8c4.5,11,62.9-12,133.1-45.5c-57.1-22.1-125-49.7-180.9-72.7C134.3,406.6,150.7,446.9,166.3,485.8z
		"/>
	<path class="st2" d="M31.3,113.3c-7.1,4.7,8.9,54,35.2,122.9c29.6-41.9,66.4-92.4,100.8-135.1C93.8,105.5,36.2,109.9,31.3,113.3z"
		/>
	<path class="st0" d="M505.2,84.3c0,0-68.3,2.9-153,7c37,35.2,79.9,76.5,116.8,112.9C488,133.1,505.2,84.3,505.2,84.3z"/>
	<path class="st3" d="M352.1,91.3c-59.5,2.9-127.1,6.3-184.9,9.8c-34.3,42.7-71.1,93.2-100.8,135.1c14.9,39,33,84.3,52,131.5
		c55.9,23,123.8,50.5,180.9,72.7c42.9-20.5,90.3-44.8,132.4-67.7c10-60.9,24-119.8,37.1-168.4C432,167.8,389.1,126.5,352.1,91.3z"/>
	<g>
		<path class="st4" d="M279.8,191.4V168c4.8,0.2,22.5,1.6,22.5,11.7v11.7L279.8,191.4L279.8,191.4z"/>
		<path class="st4" d="M409.3,315.9c-12,0-20-4.3-24.3-13.2c-0.2-0.3-0.5-0.6-0.9-0.7H384c-0.4,0-0.7,0.2-0.9,0.4
			c-7.6,8.9-18.7,13.4-32.6,13.4c-4.7,0-8.9-0.8-12.7-2.3c-0.2-0.1-0.3-0.1-0.4-0.1s-0.3,0-0.4,0.1c-3,1-9.2,2.1-21.4,2.3h-8.8
			c-5.5,0-10.1-1-13.9-2.8c-0.1-0.1-0.3-0.1-0.5-0.1s-0.3,0-0.5,0.1c-2.2,1-8.1,2.6-22.7,2.8c0,0-0.1,0-0.2,0h-8.6
			c-5.4,0-10-0.9-13.8-2.7c-0.1-0.1-0.3-0.1-0.5-0.1s-0.3,0-0.5,0.1c-2.2,1-8.2,2.6-22.6,2.8c0,0-0.1,0-0.2,0h-7.3
			c-12,0-20-4.3-24.3-13.2c-0.2-0.3-0.5-0.6-0.9-0.7h-0.1c-0.3,0-0.6,0.2-0.9,0.4c-7.7,8.9-18.7,13.4-32.6,13.4
			c-9,0-16.6-2.9-22.5-8.6c-5.8-5.7-8.8-13.4-8.8-23c0-6.9,2.1-12.9,6.2-18.1c4.1-5.2,9.6-9.1,16.2-11.7c6.7-2.6,13.4-4.7,19.9-5.9
			c6.5-1.2,13.1-1.9,19.6-2.1c0.6,0,1.2-0.6,1.2-1.2c-0.2-7.9-2-13.6-5.6-17c-3.5-3.4-9.2-5.1-16.8-5.1c-7.7,0-16.2,2.2-25.1,6.6
			c-3-2-4.4-6.7-5.1-10.3l-0.6-4.9c0-0.3,0-0.5,0-0.7c12.1-6.3,24.7-9.5,37.7-9.5c12.8,0,22.4,3.5,28.7,10.5s9.5,18.8,9.5,35.1v27.3
			c0,8.5,0.7,13.8,2.1,16.3c1.4,2.7,4.7,4,9.8,4h2.9c0.8,0,4.8,0,7.8-0.7c0.6-0.2,1-0.8,0.9-1.4c-0.4-2.1-0.6-4.3-0.6-6.4V179.6
			c0-10.1,17.7-11.5,22.6-11.7V278c0,9.2,0.8,14.5,2.7,16.7c1.9,2.2,6,3.3,12.9,3.3c0.2,0,4.7-0.1,8-1.1c0.6-0.2,1-0.7,0.8-1.3
			c-0.4-2.1-0.6-4.3-0.6-6.4v-82.7h22.6v71.7c0,9.2,0.9,14.5,2.7,16.7c1.9,2.2,6.1,3.3,12.8,3.3l0,0c0,0,0.9,0,2.1-0.1
			c0.3,0,0.7-0.2,0.9-0.5c0.2-0.3,0.2-0.7,0.1-1.1c-1.3-3.7-1.9-7.7-1.9-12c0-6.9,2-12.9,6.2-18.1c4.1-5.2,9.5-9.1,16.2-11.7
			s13.4-4.7,19.9-5.9c6.5-1.2,13-1.9,19.5-2.1c0.7,0,1.2-0.6,1.2-1.2c-0.1-7.9-2-13.6-5.5-17s-9.2-5.1-16.8-5.1
			c-7.7,0-16.2,2.2-25.2,6.6c-3.1-2.1-4.5-7.2-5.2-11.1l-0.4-3.2c0-0.6-0.1-1.1-0.1-1.6c12.1-6.3,24.7-9.5,37.7-9.5
			c12.8,0,22.4,3.5,28.6,10.5c6.3,7,9.5,18.8,9.5,35.1v27.3c0,8.5,0.7,13.8,2,16.3c1.5,2.7,4.8,4,9.8,4h1.5l-2.1,18.4h-7.3V315.9z
			 M380.8,261.2c-11,0.4-20.1,2.4-27.1,6c-7.2,3.6-10.9,9.1-10.9,16.1c0,10.1,5.8,15.5,16.7,15.5c3.7,0,7.6-0.9,11.7-2.8
			c4.1-1.8,7.7-4.3,10.6-7.5c0.2-0.2,0.3-0.5,0.3-0.8v-25.2c0-0.3-0.1-0.6-0.3-0.9C381.5,261.3,381.2,261.2,380.8,261.2L380.8,261.2
			z M186.8,261.2c-11,0.4-20.2,2.4-27.1,6c-7.2,3.6-10.9,9.1-10.9,16.1c0,10.1,5.8,15.5,16.6,15.5c3.7,0,7.6-0.9,11.8-2.8
			c4.1-1.8,7.6-4.3,10.5-7.5c0.2-0.2,0.3-0.5,0.3-0.8v-25.2c0-0.3-0.1-0.6-0.4-0.9C187.5,261.3,187.2,261.2,186.8,261.2L186.8,261.2
			z"/>
	</g>
	<path class="st1" d="M419.2,479.5c2.2-35.1,6.7-71.4,12.6-106.9c-42.1,22.9-89.5,47.3-132.4,67.7
		C366.6,466.3,418.9,484.8,419.2,479.5z"/>
</g>
</svg>
