<?xml version="1.0" encoding="utf-8"?>
<!-- Generator: Adobe Illustrator 24.3.0, SVG Export Plug-In . SVG Version: 6.00 Build 0)  -->
<svg version="1.1" id="Capa_1" xmlns="http://www.w3.org/2000/svg" xmlns:xlink="http://www.w3.org/1999/xlink" x="0px" y="0px"
	 width="56px" height="37px" viewBox="0 0 56 37" style="enable-background:new 0 0 56 37;" xml:space="preserve">
<g>
	<g style="opacity:0;">
		<rect style="fill:#FFFFFF;" width="56" height="37"/>
	</g>
	<rect x="20.6" y="6.5" style="fill:#FF5F00;" width="14.8" height="24.1"/>
	<path style="fill:#EB001B;" d="M22.1,18.5c0-4.7,2.2-9.2,5.9-12.1C21.3,1.2,11.7,2.4,6.5,9S2.4,25.3,9,30.6c5.6,4.4,13.4,4.4,19,0
		C24.3,27.7,22.1,23.2,22.1,18.5z"/>
	<path style="fill:#F79E1B;" d="M51.4,28v-0.5h0.2v-0.1h-0.5v0.1h0.2L51.4,28L51.4,28z M52.3,28v-0.6h-0.2L52,27.9l-0.2-0.4h-0.2V28
		h0.1v-0.5L52,28h0.1l0.2-0.4V28L52.3,28z"/>
	<path style="fill:#F79E1B;" d="M52.8,18.5c0,8.5-6.9,15.3-15.3,15.3c-3.4,0-6.8-1.2-9.5-3.3c6.7-5.2,7.8-14.9,2.6-21.5
		c-0.8-1-1.6-1.8-2.6-2.6C34.7,1.2,44.3,2.4,49.5,9C51.7,11.7,52.8,15.1,52.8,18.5L52.8,18.5z"/>
</g>
</svg>
